<?xml version="1.0" encoding="UTF-8"?>
<svg width="1200pt" height="1200pt" version="1.1" viewBox="0 0 1200 1200" xmlns="http://www.w3.org/2000/svg">
 <path d="m801.14 156h16.406c26.484 0 48-21.516 48-48 0-26.438-21.516-48-48-48h-435.1c-26.484 0-48 21.562-48 48 0 26.484 21.516 48 48 48h16.406v108.52c0 124.5 48.984 245.72 135 335.48-86.016 89.766-135 210.98-135 335.48v108.52h-16.406c-26.484 0-48 21.516-48 48 0 26.438 21.516 48 48 48h435.14c26.484 0 48-21.562 48-48 0-26.484-21.516-48-48-48h-16.406v-108.52c0-124.5-48.984-245.72-135-335.48 86.016-89.766 135-210.98 135-335.48zm-172.87 431.06c-3.5156 3.375-5.4844 8.0625-5.4844 12.938s1.9688 9.5625 5.4844 12.938c87 84.094 136.92 201.66 136.92 322.55v112.92h-77.906c-8.625 0-15.609 6.9844-15.609 15.609s6.9844 15.609 15.609 15.609h92.156c1.2188 0.23438 2.4375 0.375 3.75 0.375h34.406c6.6094 0 12 5.3906 12 12-0.046874 6.6094-5.3906 12-12.047 12h-435.1c-6.6094 0-12-5.3906-12-12s5.3906-12 12-12h34.406c1.2656 0 2.5312-0.14062 3.75-0.375h221.86c8.625 0 15.609-6.9844 15.609-15.609s-6.9844-15.609-15.609-15.609h-207.61v-112.92c0-120.84 49.875-238.4 136.92-322.55 3.5156-3.375 5.4844-8.0625 5.4844-12.938s-1.9688-9.5625-5.4844-12.938c-87-84.094-136.92-201.66-136.92-322.55v-113.58h26.953c8.625 0 15.609-6.9844 15.609-15.609s-6.9844-15.609-15.609-15.609h-44.953c-0.42188 0-0.79688 0.23438-1.2188 0.23438l-33.188 0.046875c-6.6094 0-12-5.3906-12-12s5.3438-12 12-12h435.14c6.6094 0 12 5.3906 12 12s-5.3906 12-12 12h-33.188c-0.42188-0.046875-0.79688-0.23438-1.2188-0.23438h-218.39c-8.625 0-15.609 6.9844-15.609 15.609s6.9844 15.609 15.609 15.609h200.34v113.58c0 120.84-49.875 238.4-136.87 322.5z" fill="#4c25e0"/>
 <path d="m694.97 349.87h-189.89c-7.125 0-13.922 3.375-18.234 9.0938s-5.6719 12.891-3.7031 19.734c19.922 69.422 57.422 132.66 108.47 182.81 2.3438 2.2969 5.3906 3.4219 8.3906 3.4219 3.0469 0 6.0938-1.1719 8.3906-3.4219 14.906-14.672 28.875-30.656 41.438-47.484 3.9375-5.2969 2.8594-12.844-2.4375-16.781s-12.844-2.8594-16.781 2.4375c-9.4219 12.656-19.688 24.797-30.609 36.188-43.359-45.375-75.516-101.16-93.281-162.05l186.71-0.46875c-9.9375 34.219-24.422 66.891-43.078 97.219-3.4688 5.6719-1.7344 13.031 3.9375 16.5 5.6719 3.4688 13.031 1.7344 16.5-3.9375 20.062-32.578 35.578-67.734 46.125-104.53 1.9688-6.8438 0.60938-14.016-3.7031-19.734-4.3125-5.5781-11.109-9-18.234-9z" fill="#4c25e0"/>
 <path d="m721.08 988.5c-6.6562 0-12 5.3438-12 12l0.14062 6.0469-218.26 0.14062v-102.28c0-6.6562-5.3438-12-12-12s-12 5.3438-12 12v102.28c0 13.172 10.734 23.859 23.859 23.859h218.39c13.172 0 23.859-10.734 23.859-23.859v-6.1875c0-6.6094-5.3906-12-12-12z" fill="#4c25e0"/>
 <path d="m476.68 837.98c-0.42188 0.1875-0.65625 0.5625-1.0781 0.75-0.75 0.46875-1.4531 0.9375-2.1094 1.5469-0.51562 0.51562-0.9375 1.0312-1.3594 1.6406-0.46875 0.65625-0.89062 1.2656-1.2188 1.9688-0.32812 0.75-0.5625 1.5469-0.75 2.3438-0.09375 0.46875-0.375 0.84375-0.42188 1.3125-0.79688 6.7969-1.4062 13.641-1.875 20.484-0.42188 6.6094 4.5469 12.328 11.203 12.75 0.28125 0 0.5625 0.046875 0.79688 0.046875 6.2344 0 11.531-4.875 11.953-11.203 0.28125-4.1719 0.70312-8.2969 1.125-12.422 65.859-27.609 148.31-27.609 214.18 0 1.2188 12.656 1.9688 25.078 1.9688 36.891v69.656c0 6.6562 5.3438 12 12 12s12-5.3438 12-12v-69.656c0-14.906-0.9375-30.609-2.7656-46.547-0.046874-0.46875-0.32812-0.84375-0.42187-1.2656-0.1875-0.84375-0.42188-1.6406-0.79688-2.4375-0.32812-0.65625-0.70312-1.2656-1.125-1.8281-0.46875-0.65625-0.9375-1.2188-1.5469-1.7812-0.60938-0.5625-1.2656-1.0312-2.0156-1.4531-0.375-0.23438-0.65625-0.60938-1.0781-0.79688-74.953-33.938-171.74-33.938-246.66 0z" fill="#4c25e0"/>
 <path d="m600 692.81c6.6562 0 12-5.3438 12-12v-42c0-6.6562-5.3438-12-12-12s-12 5.3438-12 12v42c0 6.6562 5.3438 12 12 12z" fill="#4c25e0"/>
 <path d="m588 774.52c0 6.6562 5.3438 12 12 12s12-5.3438 12-12v-42c0-6.6562-5.3438-12-12-12s-12 5.3438-12 12z" fill="#4c25e0"/>
 <path d="m549.71 896.26c0 22.781-34.172 22.781-34.172 0s34.172-22.781 34.172 0" fill="#4c25e0"/>
 <path d="m565.45 407.95c0 21.047-31.547 21.047-31.547 0s31.547-21.047 31.547 0" fill="#4c25e0"/>
 <path d="m608.16 477.42c0 18.422-27.703 18.422-27.703 0 0-18.469 27.703-18.469 27.703 0" fill="#4c25e0"/>
 <path d="m657.79 404.44c0 18.469-27.656 18.469-27.656 0 0-18.422 27.656-18.422 27.656 0" fill="#4c25e0"/>
 <path d="m618.94 946.69c0 22.781-34.125 22.781-34.125 0 0-22.734 34.125-22.734 34.125 0" fill="#4c25e0"/>
 <path d="m555.05 973.97c0 20.203-30.234 20.203-30.234 0 0-20.156 30.234-20.156 30.234 0" fill="#4c25e0"/>
 <path d="m689.11 975.32c0 20.203-30.234 20.203-30.234 0 0-20.156 30.234-20.156 30.234 0" fill="#4c25e0"/>
 <path d="m669.89 892.36c0 17.625-26.344 17.625-26.344 0 0-17.578 26.344-17.578 26.344 0" fill="#4c25e0"/>
 <path d="m509.44 150.94h7.7344c8.625 0 15.609-6.9844 15.609-15.609s-6.9844-15.609-15.609-15.609h-7.7344c-8.625 0-15.609 6.9844-15.609 15.609 0.046875 8.625 7.0312 15.609 15.609 15.609z" fill="#4c25e0"/>
</svg>
